<svg xmlns="http://www.w3.org/2000/svg" width="25" height="25" viewBox="0 0 25 25">
	<path fill="#ffffff" d="M25 20.1C25 19.6 24.8 19.1 24.4 18.7L18.2 12.5 24.4 6.3C24.8 5.9 25 5.4 25 4.9 25 4.4 24.8 3.8 24.4 3.5L21.5 0.6C21.2 0.2 20.6 0 20.1 0 19.6 0 19.1 0.2 18.7 0.6L12.5 6.8 6.3 0.6C5.9 0.2 5.4 0 4.9 0 4.4 0 3.8 0.2 3.5 0.6L0.6 3.5C0.2 3.8 0 4.4 0 4.9 0 5.4 0.2 5.9 0.6 6.3L6.8 12.5 0.6 18.7C0.2 19.1 0 19.6 0 20.1 0 20.6 0.2 21.2 0.6 21.5L3.5 24.4C3.8 24.8 4.4 25 4.9 25 5.4 25 5.9 24.8 6.3 24.4L12.5 18.2 18.7 24.4C19.1 24.8 19.6 25 20.1 25 20.6 25 21.2 24.8 21.5 24.4L24.4 21.5C24.8 21.2 25 20.6 25 20.1Z"/>
</svg>
