<?xml version="1.0"?>
<svg xmlns="http://www.w3.org/2000/svg" version="1" viewBox="0 0 24 24" enable-background="new 0 0 24 24">
    <path style="text-indent:0;text-align:start;line-height:normal;text-transform:none;block-progression:tb;-inkscape-font-specification:Bitstream Vera Sans" d="M 12 2 C 9.3533333 2 6.9703019 2.5872406 5.1875 3.4375 C 4.296099 3.8626297 3.5660099 4.3324331 3 4.90625 C 2.4339901 5.4800669 2 6.1796296 2 7 C 2 7.5394458 2.2050455 8.0156462 2.5 8.4375 C 2.4119681 8.6306627 2.3269121 8.8317637 2.25 9.0625 C 2.0895016 9.5439951 1.8857062 9.9597812 2.03125 10.6875 A 1.0001 1.0001 0 0 0 2.0625 10.875 C 2.252146 11.349115 2.6325068 11.727635 3.03125 11.9375 C 3.3989097 12.131005 3.7795839 12.191488 4.15625 12.25 C 4.182164 12.29007 4.233396 12.373043 4.3125 12.53125 C 4.408773 12.723796 4.5136131 12.973065 4.71875 13.25 C 4.9238869 13.526935 5.264664 13.847416 5.75 13.96875 A 1.0001 1.0001 0 0 0 6 14 C 6.4277778 14 6.679073 13.880645 6.9375 13.78125 C 7.195927 13.681855 7.4445737 13.581414 7.65625 13.5 C 7.8219965 13.436251 7.9186279 13.424673 8 13.40625 C 8.8044396 14.255372 9.5199948 14.814115 10.3125 14.96875 C 11.181779 15.138365 12.003334 14.651755 12.4375 14.15625 L 12.46875 14.15625 C 12.83103 13.760681 13.122122 13.558347 13.28125 13.5 C 13.444137 13.44027 13.410831 13.4902 13.375 13.46875 L 13.375 13.4375 C 13.774789 13.725037 14.204579 13.912153 14.75 14.125 C 15.035106 14.236261 15.336289 14.33457 15.625 14.40625 C 15.913711 14.47793 16.148176 14.557865 16.59375 14.46875 A 1.0001 1.0001 0 0 0 16.6875 14.46875 C 17.164494 14.332466 17.604745 14.022786 17.875 13.71875 C 18.114607 13.449192 18.329954 13.157036 18.65625 12.78125 C 18.780677 12.75673 19.009811 12.73685 19.28125 12.71875 C 19.815279 12.68315 20.451148 12.68193 21.125 12.4375 C 21.14021 12.4324 21.14127 12.41203 21.15625 12.40625 C 21.201054 12.388951 21.2385 12.36545 21.28125 12.34375 C 20.198535 13.586813 17.639118 15.5 12 15.5 C 3.3 15.5 2 11.3125 2 11.3125 L 2 13.8125 C 2 13.93125 2.0281982 14.035034 2.0625 14.15625 C 2.047845 14.130848 2 14.09375 2 14.09375 L 2 17.1875 C 2 20.2875 7.2 22 12 22 C 16.8 22 22 20.2875 22 17.1875 L 22 14.09375 C 22 14.09375 21.942459 14.185335 21.84375 14.3125 C 21.925525 14.135223 22 13.977697 22 13.8125 L 22 11.3125 C 22 11.3125 21.971816 11.336697 21.96875 11.34375 C 21.977509 11.246582 21.998845 11.145099 22 11.0625 C 22.0056 10.659416 21.94818 10.319352 21.84375 9.96875 C 21.698117 9.4798368 21.508668 9.0727213 21.28125 8.6875 C 21.69439 8.2239069 22 7.6468305 22 7 C 22 6.1796296 21.56601 5.4800669 21 4.90625 C 20.43399 4.3324331 19.703901 3.8626297 18.8125 3.4375 C 17.029698 2.5872406 14.646667 2 12 2 z M 12 4 C 14.353333 4 16.470302 4.5190094 17.9375 5.21875 C 18.671099 5.5686203 19.25351 5.9675669 19.59375 6.3125 C 19.93399 6.6574331 20 6.9203704 20 7 C 20 7.0796296 19.973959 7.2551715 19.65625 7.53125 C 19.338541 7.8073285 18.766569 8.1034978 18.03125 8.375 C 16.560613 8.9180045 14.4 9.3125 12 9.3125 C 9.5933333 9.3125 7.4356098 8.9678262 5.96875 8.4375 C 5.2353201 8.1723369 4.6885985 7.8382504 4.375 7.5625 C 4.0614015 7.2867496 4 7.1241228 4 7 C 4 6.9203704 4.0660099 6.6574331 4.40625 6.3125 C 4.7464901 5.9675669 5.328901 5.5686203 6.0625 5.21875 C 6.1684865 5.6572539 6.5289336 6 7 6 C 7.5522847 6 8 5.5522847 8 5 C 8 4.8373047 7.9439339 4.6982737 7.875 4.5625 C 8.2568528 4.4549752 8.6425038 4.3610105 9.0625 4.28125 C 9.1885374 4.689269 9.5505919 5 10 5 C 10.530627 5 10.966769 4.5847396 11 4.0625 C 11.331167 4.041562 11.657549 4 12 4 z M 9 6 C 8.4477153 6 8 6.4477153 8 7 C 8 7.5522847 8.4477153 8 9 8 C 9.5522847 8 10 7.5522847 10 7 C 10 6.4477153 9.5522847 6 9 6 z M 4.09375 9.78125 C 4.4547696 9.9750944 4.8586728 10.159722 5.28125 10.3125 C 7.0643902 10.957174 9.4066667 11.3125 12 11.3125 C 14.6 11.3125 16.939387 10.906996 18.71875 10.25 C 19.046851 10.128855 19.337612 10.013961 19.625 9.875 C 19.72585 10.087087 19.841739 10.345928 19.90625 10.5625 C 19.91555 10.59385 19.92958 10.59456 19.9375 10.625 C 19.681502 10.65846 19.511119 10.69509 19.15625 10.71875 C 18.865189 10.73815 18.553698 10.75265 18.25 10.8125 C 17.970526 10.86758 17.623953 10.984933 17.28125 11.375 L 17.25 11.34375 C 17.22575 11.3707 17.2419 11.38014 17.21875 11.40625 C 16.78025 11.900359 16.498234 12.236362 16.375 12.375 C 16.264206 12.499643 16.27608 12.46977 16.15625 12.5 C 16.1253 12.4984 16.17596 12.48916 16.09375 12.46875 C 15.929336 12.42793 15.696144 12.36999 15.46875 12.28125 C 15.013963 12.103772 14.486667 11.8025 14.5 11.8125 A 1.0001 1.0001 0 0 0 14.40625 11.75 C 13.870419 11.428501 13.180863 11.409725 12.59375 11.625 C 12.006637 11.840275 11.495133 12.25888 10.96875 12.84375 A 1.0001 1.0001 0 0 0 10.9375 12.84375 C 10.767658 13.041899 10.864527 13.028444 10.71875 13 C 10.572973 12.971556 10.029901 12.715404 9.25 11.84375 A 1.0001 1.0001 0 0 0 9.21875 11.78125 C 8.8109073 11.373407 8.2453898 11.333846 7.875 11.375 C 7.5046102 11.416154 7.2133237 11.518914 6.9375 11.625 C 6.6720762 11.727086 6.4357457 11.833802 6.25 11.90625 C 6.2044547 11.826319 6.1599756 11.757451 6.09375 11.625 C 5.9900232 11.417546 5.8686631 11.155213 5.625 10.875 C 5.4066937 10.623948 4.9812831 10.428024 4.53125 10.375 L 4.53125 10.3125 C 4.2556351 10.273126 4.0840043 10.19647 4 10.15625 C 4.0194905 10.103411 4.0376334 9.9645168 4.09375 9.78125 z M 7.8125 13.1875 C 7.835048 13.21245 7.852628 13.22558 7.875 13.25 C 7.831318 13.22805 7.825446 13.26295 7.78125 13.21875 L 7.8125 13.1875 z M 20 16.03125 L 20 17.1875 C 20 18.2875 16.9 20 12 20 C 7.1 20 4 18.3875 4 17.1875 L 4 16.125 C 5.8266193 17.187245 8.7222859 18 12 18 C 15.277714 18 18.173381 17.108564 20 16.03125 z" overflow="visible" enable-background="accumulate" font-family="Bitstream Vera Sans"/>
</svg>
