<?xml version="1.0" standalone="no"?>
<!DOCTYPE svg PUBLIC "-//W3C//DTD SVG 20010904//EN"
 "http://www.w3.org/TR/2001/REC-SVG-20010904/DTD/svg10.dtd">
<svg version="1.0" xmlns="http://www.w3.org/2000/svg"
 width="45.000000pt" height="45.000000pt" viewBox="0 0 45.000000 45.000000"
 preserveAspectRatio="xMidYMid meet">

<g transform="translate(0.000000,45.000000) scale(0.100000,-0.100000)"
fill="#000000" stroke="none">
<path d="M17 432 c-15 -16 -17 -46 -17 -209 0 -171 2 -192 18 -206 16 -15 46
-17 209 -17 171 0 192 2 206 18 15 16 17 46 17 209 0 171 -2 192 -18 206 -16
15 -46 17 -209 17 -171 0 -192 -2 -206 -18z m353 -142 c0 -19 -7 -20 -145 -20
-138 0 -145 1 -145 20 0 19 7 20 145 20 138 0 145 -1 145 -20z m0 -60 c0 -19
-7 -20 -145 -20 -138 0 -145 1 -145 20 0 19 7 20 145 20 138 0 145 -1 145 -20z
m0 -60 c0 -19 -7 -20 -145 -20 -138 0 -145 1 -145 20 0 19 7 20 145 20 138 0
145 -1 145 -20z"/>
</g>
</svg>
