<?xml version="1.0" standalone="no"?>
<!DOCTYPE svg PUBLIC "-//W3C//DTD SVG 20010904//EN"
 "http://www.w3.org/TR/2001/REC-SVG-20010904/DTD/svg10.dtd">
<svg version="1.0" xmlns="http://www.w3.org/2000/svg"
 width="200.000000pt" height="200.000000pt" viewBox="0 0 200.000000 200.000000"
 preserveAspectRatio="xMidYMid meet">
<metadata>
Created by potrace 1.11, written by Peter Selinger 2001-2013
</metadata>
<g transform="translate(0.000000,200.000000) scale(0.100000,-0.100000)"
fill="#000000" stroke="none">
<path d="M784 1964 c-56 -12 -131 -34 -165 -49 -35 -15 -72 -29 -81 -32 -10
-3 -18 -9 -18 -14 0 -5 -5 -9 -11 -9 -6 0 -39 -18 -72 -41 -54 -37 -78 -57
-152 -125 -99 -91 -217 -304 -256 -459 -28 -111 -34 -295 -13 -405 71 -390
349 -685 744 -791 71 -19 110 -23 235 -23 132 0 162 3 249 27 230 63 411 185
552 372 64 84 135 233 159 329 9 38 19 79 22 90 12 50 11 265 -2 331 -26 135
-42 182 -97 290 -90 174 -248 332 -423 422 -206 106 -447 138 -671 87z"/>
</g>
</svg>
